<?xml version="1.0" encoding="iso-8859-1"?>
<!-- Generator: Adobe Illustrator 19.0.0, SVG Export Plug-In . SVG Version: 6.00 Build 0)  -->
<svg version="1.1" id="Capa_1" xmlns="http://www.w3.org/2000/svg" xmlns:xlink="http://www.w3.org/1999/xlink" x="0px" y="0px"
	 viewBox="0 0 512 512" style="enable-background:new 0 0 512 512;" xml:space="preserve">
<g>
	<g>
		<g>
			<path d="M192,358.4c17.625-1.275,30.943-16.495,29.867-34.133c1.076-17.638-12.241-32.859-29.867-34.133
				c-17.625,1.275-30.943,16.495-29.867,34.133C161.057,341.905,174.375,357.125,192,358.4z M192,307.2
				c6.942,0,12.8,7.817,12.8,17.067s-5.858,17.067-12.8,17.067s-12.8-7.817-12.8-17.067S185.058,307.2,192,307.2z"/>
			<path d="M320,358.4c17.625-1.275,30.943-16.495,29.867-34.133c1.076-17.638-12.241-32.859-29.867-34.133
				c-17.625,1.275-30.943,16.495-29.867,34.133C289.057,341.905,302.375,357.125,320,358.4z M320,307.2
				c6.942,0,12.8,7.817,12.8,17.067s-5.858,17.067-12.8,17.067s-12.8-7.817-12.8-17.067S313.058,307.2,320,307.2z"/>
			<path d="M512,33.354c-0.044-0.405-0.119-0.806-0.223-1.2c0.001-0.333-0.019-0.665-0.06-0.995c-0.041-0.151-0.152-0.257-0.2-0.404
				c-0.221-0.624-0.516-1.218-0.879-1.772c-0.187-0.364-0.401-0.713-0.639-1.046c-0.451-0.499-0.96-0.943-1.516-1.321
				c-0.279-0.252-0.575-0.484-0.886-0.696c-0.604-0.292-1.24-0.512-1.896-0.656c-0.374-0.147-0.757-0.266-1.148-0.357l-0.086-0.027
				c-65.562-7.7-118.885,28.155-137.3,42.56c-2.208-2.021-4.48-3.924-6.767-5.801c9.723-20.807,3.961-45.564-13.95-59.939
				c-2.588-1.934-6.045-2.242-8.934-0.796c-2.889,1.446-4.714,4.399-4.716,7.629c0,12.007-16.051,19.557-27.201,23.379
				c-16.056-4.889-32.836-6.963-49.599-6.133c-16.766-0.834-33.549,1.24-49.607,6.132C195.24,28.089,179.2,20.541,179.2,8.533
				c-0.002-3.23-1.828-6.183-4.716-7.629c-2.889-1.446-6.346-1.138-8.934,0.796c-17.911,14.375-23.673,39.133-13.949,59.94
				c-2.287,1.876-4.559,3.778-6.768,5.799c-18.416-14.407-71.739-50.3-137.3-42.56l-0.122,0.038
				c-0.157,0.022-0.292,0.109-0.446,0.139c-0.912,0.155-1.793,0.459-2.608,0.899c-0.193,0.108-0.333,0.283-0.518,0.407
				c-0.693,0.441-1.317,0.98-1.854,1.601c-0.216,0.306-0.411,0.625-0.584,0.957c-0.381,0.573-0.69,1.191-0.918,1.839
				c-0.048,0.146-0.159,0.249-0.199,0.399c-0.041,0.33-0.061,0.663-0.06,0.995c-0.104,0.394-0.179,0.795-0.224,1.2
				c0,122.245,59.165,158.911,82.502,168.614c-0.428,6.201-0.925,12.263-1.918,18.241c-1.041,7.305-3.182,14.411-6.35,21.075
				c-6.049,11.431-10.307,23.723-12.625,36.446c-1.527,11.11-2.126,22.328-1.792,33.537c0.081,4.083,0.245,8.041,0.507,11.663
				c-0.118,0.439-0.201,0.886-0.248,1.337c0.038,0.729,0.18,1.449,0.421,2.138l0.004,0.079c0.041,0.281,0.097,0.559,0.168,0.834
				c0.067,1.523,0.134,3.931,0.205,6.708c-6.305,12.909-9.611,27.076-9.673,41.442C51.2,450.75,143.075,512,256,512
				s204.8-61.25,204.8-136.533c-0.057-14.248-3.308-28.302-9.514-41.127c0.455-2.449,0.697-4.932,0.722-7.423l0.042-0.904
				c0.118-0.574,0.176-1.159,0.175-1.746c-0.038-0.864-0.212-1.716-0.515-2.526c0.208-3.483,0.404-6.955,0.473-10.432
				c0.336-11.221-0.264-22.45-1.792-33.571c-2.397-13-6.776-25.554-12.983-37.225c-2.994-6.44-5.013-13.29-5.992-20.325
				c-0.993-5.961-1.491-12.021-1.918-18.22C452.836,192.264,512,155.598,512,33.354z M463.595,42.593
				c-25.037,17.918-45.754,41.203-60.638,68.155c-5.957-9.068-12.434-17.784-19.399-26.103c-1.417-1.703-2.913-3.29-4.377-4.924
				C403.882,60.666,432.857,47.922,463.595,42.593z M344.617,25.837c3.873,7.894,4.389,17.019,1.432,25.3
				c-5.813-3.896-11.878-7.404-18.154-10.498C334.55,37.081,340.277,32.011,344.617,25.837z M255.55,42.845
				c0.3,0.017,0.6,0.017,0.9,0c21.912-1.125,43.752,3.312,63.487,12.901c-42.073,63.993-46.87,138.433-46.87,168.337
				c0,4.936,0.182,10.086,0.452,15.384c-5.781-0.328-11.613-0.534-17.519-0.534s-11.738,0.206-17.519,0.534
				c0.27-5.297,0.452-10.447,0.452-15.384c0-29.906-4.798-104.352-46.878-168.348C211.786,46.127,233.635,41.692,255.55,42.845z
				 M360.785,198.648c-3.112-5.401-6.905-10.38-11.285-14.814c-12.635-13.025-30.882-18.979-48.768-15.912
				c4.375-12.546,15.647-21.401,28.872-22.68c13.225-1.28,25.986,5.25,32.685,16.724C368.987,173.438,368.4,187.76,360.785,198.648z
				 M347.619,209.807c-4.606,2.29-9.675,3.496-14.819,3.526c-16.382-0.029-30.435-11.686-33.491-27.78
				C319.184,180.677,339.657,190.956,347.619,209.807z M174.566,195.899c9.879-10.133,24.475-14.112,38.129-10.394
				c-3.035,16.115-17.097,27.798-33.496,27.827c-5.104-0.028-10.135-1.214-14.714-3.468
				C167.128,204.731,170.526,200.023,174.566,195.899z M162.5,183.833c-4.38,4.435-8.173,9.414-11.285,14.815
				c-3.998-5.698-6.145-12.488-6.148-19.449c-0.043-16.63,11.935-30.857,28.329-33.65c16.394-2.793,32.406,6.666,37.872,22.372
				C193.383,164.86,175.138,170.813,162.5,183.833z M167.383,25.833c4.335,6.177,10.062,11.248,16.718,14.804
				c-6.275,3.095-12.337,6.602-18.148,10.498C162.999,42.853,163.514,33.729,167.383,25.833z M132.819,79.722
				c-1.467,1.638-2.966,3.229-4.385,4.936c-6.962,8.315-13.437,17.026-19.391,26.09l0,0C94.163,83.806,73.457,60.528,48.433,42.611
				C79.159,47.942,108.123,60.68,132.819,79.722z M17.308,45.263c44.884,17.661,72.369,64.391,81.744,82.862
				c-0.695,1.375-1.499,2.764-2.143,4.136c-6.402,13.735-10.547,28.412-12.275,43.467c-0.342,2.709-0.579,5.414-0.811,8.112
				C62.315,173.034,20.572,139.896,17.308,45.263z M78.508,280.146c2.163-11.223,6.013-22.054,11.417-32.125
				c3.73-7.922,6.255-16.357,7.492-25.025c1.217-7.987,2.022-16.032,2.412-24.103l0.071-0.143c0.352-1.223,0.421-2.51,0.202-3.763
				c0.373-5.867,0.755-11.508,1.473-17.161c1.504-13.256,5.139-26.183,10.766-38.28c7.825-15.846,17.643-30.627,29.217-43.983
				c8.892-10.79,19.245-20.288,30.759-28.221c0.142-0.1,0.3-0.213,0.45-0.338c1.445-1.003,2.942-1.871,4.411-2.814
				c14.963,22.898,26.167,48.042,33.186,74.479c-22.348-17.218-54.418-13.082-71.666,9.243s-13.154,54.401,9.148,71.678
				c0.15,0.139,0.327,0.238,0.489,0.366c11.133,8.488,25.266,12.027,39.085,9.787c13.819-2.239,26.111-10.06,33.994-21.629
				c0.32,6.16,0.452,11.613,0.452,15.969c0,5.351-0.229,10.995-0.57,16.851c-62.133,7.104-114.785,32.909-144.393,68.409
				C76.657,299.583,77.194,289.82,78.508,280.146z M443.733,375.466c0,65.875-84.217,119.467-187.733,119.467
				S68.267,441.341,68.267,375.466c0.054-12.329,2.95-24.479,8.464-35.506c0.283-0.43,0.525-0.884,0.724-1.359
				C101.929,290.717,172.696,256,256,256c83.482,0,154.379,34.864,178.707,82.906c0.026,0.073,0.079,0.13,0.108,0.203
				C440.608,350.357,443.664,362.814,443.733,375.466z M433.492,280.154c1.313,9.671,1.849,19.431,1.605,29.188
				c-29.608-35.499-82.26-61.305-144.393-68.408c-0.341-5.856-0.57-11.5-0.57-16.851c0-4.356,0.131-9.809,0.452-15.969
				c7.883,11.569,20.175,19.39,33.994,21.629c13.819,2.239,27.952-1.3,39.085-9.787c0.161-0.129,0.338-0.227,0.489-0.366
				c14.488-11.156,21.915-29.201,19.478-47.323c-2.437-18.123-14.367-33.564-31.287-40.497c-16.92-6.933-36.255-4.302-50.708,6.9
				c7.019-26.437,18.222-51.58,33.185-74.477c1.452,0.932,2.933,1.788,4.362,2.779c0.158,0.129,0.325,0.254,0.5,0.371
				c11.51,7.93,21.859,17.424,30.75,28.208c11.584,13.37,21.411,28.166,29.242,44.029c5.622,12.099,9.255,25.027,10.758,38.283
				c0.71,5.619,1.092,11.258,1.465,17.123c-0.219,1.254-0.15,2.541,0.202,3.764l0.071,0.143c0.389,8.063,1.194,16.101,2.412,24.082
				c1.273,8.85,3.874,17.456,7.717,25.529C427.608,258.428,431.381,269.099,433.492,280.154z M428.178,183.84
				c-0.23-2.688-0.465-5.383-0.803-8.074c-1.727-15.055-5.869-29.734-12.267-43.471c-0.65-1.384-1.459-2.782-2.16-4.169
				c9.374-18.472,36.859-65.203,81.744-82.864C491.428,139.894,449.686,173.032,428.178,183.84z"/>
			<path d="M352.8,393.053c-4.422-1.603-9.309,0.664-10.942,5.075C341.717,398.5,327.442,435.2,256,435.2
				c-70.517,0-85.292-35.638-85.858-37.071c-1.049-2.861-3.546-4.945-6.548-5.467c-3.003-0.522-6.055,0.598-8.009,2.938
				s-2.51,5.543-1.46,8.404c0.717,1.971,18.65,48.262,101.875,48.262s101.158-46.292,101.875-48.262
				c0.78-2.125,0.683-4.473-0.269-6.527S354.926,393.832,352.8,393.053z"/>
		</g>
	</g>
</g>
<g>
</g>
<g>
</g>
<g>
</g>
<g>
</g>
<g>
</g>
<g>
</g>
<g>
</g>
<g>
</g>
<g>
</g>
<g>
</g>
<g>
</g>
<g>
</g>
<g>
</g>
<g>
</g>
<g>
</g>
</svg>
