<svg height="512pt" viewBox="0 0 512 512.23798" width="512pt" xmlns="http://www.w3.org/2000/svg"><path d="m247.59375 290.132812c0-18.851562-15.28125-34.132812-34.132812-34.132812-18.851563 0-34.132813 15.28125-34.132813 34.132812 0 18.851563 15.28125 34.132813 34.132813 34.132813 18.851562 0 34.132812-15.28125 34.132812-34.132813zm-34.132812 17.066407c-9.425782 0-17.066407-7.640625-17.066407-17.066407 0-9.425781 7.640625-17.066406 17.066407-17.066406 9.425781 0 17.066406 7.640625 17.066406 17.066406 0 9.425782-7.640625 17.066407-17.066406 17.066407zm0 0"/><path d="m298.792969 324.265625c18.851562 0 34.132812-15.28125 34.132812-34.132813 0-18.851562-15.28125-34.132812-34.132812-34.132812-18.851563 0-34.132813 15.28125-34.132813 34.132812 0 18.851563 15.28125 34.132813 34.132813 34.132813zm0-51.199219c9.425781 0 17.066406 7.640625 17.066406 17.066406 0 9.425782-7.640625 17.066407-17.066406 17.066407s-17.066407-7.640625-17.066407-17.066407c0-9.425781 7.640626-17.066406 17.066407-17.066406zm0 0"/><path d="m176.085938 400.382812c1.023437.4375 2.125.671876 3.242187.683594.570313-.015625 1.140625-.070312 1.707031-.171875.53125-.089843 1.050782-.265625 1.535156-.511719.542969-.183593 1.058594-.445312 1.535157-.765624l1.28125-1.023438c.75-.832031 1.359375-1.785156 1.789062-2.816406.914063-2.066406.914063-4.421875 0-6.488282-.429687-1.03125-1.039062-1.984374-1.789062-2.8125-.40625-.367187-.835938-.710937-1.28125-1.027343-.476563-.320313-.992188-.578125-1.535157-.765625-.484374-.246094-1.003906-.417969-1.535156-.511719-1.664062-.351563-3.394531-.171875-4.949218.511719-1.046876.410156-2.003907 1.019531-2.816407 1.792968-.753906.828126-1.359375 1.78125-1.792969 2.8125-.4375 1.027344-.667968 2.128907-.683593 3.246094.035156 2.257813.917969 4.421875 2.476562 6.058594.828125.75 1.78125 1.359375 2.816407 1.789062zm0 0"/><path d="m184.617188 418.816406c-1.042969.410156-2 1.019532-2.816407 1.792969-.753906.828125-1.359375 1.78125-1.792969 2.816406-.4375 1.023438-.667968 2.125-.679687 3.242188.03125 2.257812.914063 4.421875 2.472656 6.058593.832031.753907 1.78125 1.359376 2.816407 1.789063 1.027343.4375 2.128906.671875 3.242187.683594.574219-.011719 1.144531-.070313 1.707031-.167969.535156-.09375 1.054688-.265625 1.535156-.515625.546876-.183594 1.0625-.441406 1.539063-.765625l1.277344-1.023438c.753906-.832031 1.359375-1.785156 1.792969-2.816406.910156-2.066406.910156-4.421875 0-6.484375-.433594-1.035156-1.039063-1.988281-1.792969-2.816406-.40625-.367187-.832031-.710937-1.277344-1.023437-.476563-.324219-.992187-.582032-1.539063-.769532-.480468-.246094-1-.417968-1.535156-.511718-1.664062-.347657-3.394531-.171876-4.949218.511718zm0 0"/><path d="m326.867188 398.59375 1.28125 1.023438c.476562.320312.992187.582031 1.535156.765624.484375.246094 1 .421876 1.535156.511719.566406.101563 1.136719.15625 1.707031.171875 1.117188-.011718 2.21875-.246094 3.242188-.683594 1.035156-.429687 1.988281-1.039062 2.816406-1.789062 1.558594-1.636719 2.441406-3.800781 2.476563-6.058594-.015626-1.117187-.246094-2.21875-.683594-3.246094-.433594-1.03125-1.039063-1.984374-1.792969-2.8125-.816406-.773437-1.769531-1.382812-2.816406-1.792968-1.554688-.683594-3.285157-.863282-4.949219-.511719-.535156.09375-1.050781.265625-1.535156.511719-.542969.1875-1.058594.445312-1.535156.765625-.449219.316406-.875.660156-1.28125 1.027343-.753907.828126-1.359376 1.78125-1.792969 2.8125-.90625 2.066407-.90625 4.421876 0 6.488282.433593 1.03125 1.039062 1.984375 1.792969 2.816406zm0 0"/><path d="m318.335938 432.726562 1.277343 1.023438c.476563.324219.992188.582031 1.539063.765625.480468.25 1 .421875 1.535156.515625.5625.097656 1.132812.15625 1.707031.167969 1.113281-.011719 2.214844-.246094 3.242188-.683594 1.03125-.429687 1.984375-1.035156 2.816406-1.789063 1.558594-1.636718 2.441406-3.800781 2.472656-6.058593-.011719-1.117188-.246093-2.21875-.683593-3.242188-.429688-1.035156-1.035157-1.988281-1.789063-2.816406-.816406-.773437-1.773437-1.382813-2.816406-1.792969-1.558594-.683594-3.289063-.859375-4.949219-.511718-.535156.09375-1.054688.265624-1.535156.511718-.546875.1875-1.0625.445313-1.539063.769532-.445312.3125-.875.65625-1.277343 1.023437-.753907.828125-1.359376 1.78125-1.792969 2.816406-.910157 2.0625-.910157 4.417969 0 6.484375.433593 1.03125 1.039062 1.984375 1.792969 2.816406zm0 0"/><path d="m51.328125 512c24.957031-.046875 46.25-18.0625 50.429687-42.667969h65.800782c12.800781 25.03125 47.371094 42.667969 88.566406 42.667969 41.199219 0 75.792969-17.636719 88.570312-42.667969h65.800782c3.539062 21.546875 20.351562 38.476563 41.871094 42.167969 21.519531 3.6875 43.011718-6.675781 53.527343-25.8125 10.511719-19.136719 7.730469-42.835938-6.925781-59.019531 13.542969-15.003907 16.96875-36.582031 8.738281-55.042969s-26.570312-30.335938-46.78125-30.292969c-4.199219.015625-8.382812.550781-12.449219 1.597657 5.15625-18.667969 5.117188-38.390626-.109374-57.039063-3.363282-10.390625-8.339844-20.191406-14.746094-29.039063-2.5-3.691406-5.214844-7.679687-8.210938-13.097656 9.515625-11.023437 100.617188-122.664062-.628906-240.785156-1.632812-1.898438-4.019531-2.984375-6.519531-2.96875-56.027344 2.773438-104.695313 39.429688-122.832031 92.511719-9.078126-2.621094-17.226563-4.449219-23.609376-5.660157-10.359374-2-21.003906-2-31.359374 0-6.402344 1.210938-14.550782 3.039063-23.640626 5.660157-18.132812-53.082031-66.804687-89.738281-122.828124-92.511719-2.488282 0-4.855469 1.089844-6.476563 2.976562-101.246094 118.121094-10.144531 229.761719-.628906 240.785157-2.996094 5.386719-5.710938 9.386719-8.210938 13.101562-6.425781 8.847657-11.421875 18.652344-14.804687 29.054688-5.214844 18.640625-5.246094 38.351562-.09375 57.011719-21.816406-5.53125-44.679688 3.867187-56.304688 23.140624-11.621094 19.273438-9.261718 43.882813 5.8125 60.597657-13.542968 15.003906-16.96875 36.578125-8.738281 55.039062 8.230469 18.460938 26.566406 30.335938 46.78125 30.292969zm101.492187-130.6875c6.289063-7.835938 14.097657-14.320312 22.957032-19.0625 11.269531-6.117188 23.332031-10.65625 35.839844-13.484375 2.96875-.699219 5.335937-2.929687 6.214843-5.847656.878907-2.921875.132813-6.089844-1.957031-8.308594s-5.207031-3.15625-8.175781-2.457031c-14.074219 3.195312-27.644531 8.316406-40.320313 15.222656-10.917968 5.90625-20.519531 13.964844-28.226562 23.695312-1.875 2.507813-3.550782 5.15625-5.019532 7.921876-2.105468-4.40625-4.1875-8.839844-6.132812-13.464844l-1.171875-2.757813c-7.335937-17.347656-18.4375-43.519531-5.28125-55.988281 3.851563-3.3125 8.082031-6.15625 12.605469-8.472656 6.597656-3.363282 12.640625-7.71875 17.917968-12.910156 11.078126-11.792969 18.070313-26.835938 19.941407-42.90625.578125-7.3125.292969-14.667969-.851563-21.914063-1.472656-7.566406-1.398437-15.351563.222656-22.886719 4.472657-12.738281 14.253907-22.910156 26.8125-27.878906 12.6875-6.050781 23.558594-7.011719 24.695313-4.726562 3.703125 7.382812 6.449219 31.675781 7.371094 64.964843.359375 14.023438 11.835937 25.207031 25.863281 25.207031 14.03125 0 25.507812-11.183593 25.867188-25.207031.921874-33.28125 3.667968-57.582031 7.371093-64.964843 1.136719-2.285157 12.007813-1.324219 24.695313 4.726562 12.523437 4.992188 22.269531 15.164062 26.71875 27.886719 1.621094 7.535156 1.695312 15.324219.222656 22.886719-1.144531 7.246093-1.429688 14.601562-.855469 21.914062 1.875 16.070312 8.863281 31.113281 19.945313 42.90625 5.289062 5.195312 11.347656 9.550781 17.960937 12.910156 4.519531 2.316406 8.75 5.164063 12.605469 8.472656 13.15625 12.433594 2.054688 38.640626-5.285156 55.988282l-1.167969 2.75c-1.945313 4.632812-4.035156 9.070312-6.136719 13.472656-1.46875-2.769531-3.152344-5.421875-5.023437-7.9375-7.730469-9.742188-17.359375-17.816406-28.304688-23.722656-12.640625-6.882813-26.167969-11.992188-40.203125-15.179688-4.585937-1.082031-9.183594 1.761719-10.265625 6.347656-1.082031 4.589844 1.761719 9.183594 6.351563 10.265626 12.46875 2.820312 24.492187 7.339843 35.734375 13.433593 8.890625 4.746094 16.730469 11.242188 23.042969 19.097657 4.796874 5.960937 7.496093 13.339843 7.679687 20.992187-.199219 7.613281-2.863281 14.957031-7.59375 20.921875-6.332031 7.820312-14.167969 14.285156-23.042969 19.019531-1.441406.804688-2.925781 1.589844-4.429687 2.347657-15.355469 8.109374-33.519531 8.976562-49.578125 2.363281-7.816406-2.890625-14.195313-8.71875-17.773438-16.246094v-5.742187c24.191406-4.4375 42.667969-26.703126 42.667969-41.8125 0-11.675782-8.882813-25.601563-51.203125-25.601563-27.78125 0-44.484375 5.972656-49.730469 18.082031-.957031 2.390625-1.457031 4.941406-1.46875 7.519532 0 15.101562 17.820313 37.546874 42.667969 41.863281v5.71875c-3.589844 7.515625-9.96875 13.332031-17.785156 16.210937-16.054688 6.605469-34.214844 5.742188-49.570313-2.363281-1.507812-.757813-2.992187-1.542969-4.425781-2.347656-8.832031-4.714844-16.628906-11.144531-22.9375-18.917969-4.777344-5.988281-7.472656-13.367188-7.683594-21.027344.171875-7.636718 2.851563-15.007812 7.628906-20.972656zm103.304688 27.433594c-19.359375 0-34.132812-18.167969-34.132812-25.597656.007812-.320313.058593-.636719.144531-.941407 1.144531-2.628906 9.710937-7.59375 33.988281-7.59375 24.867188 0 34.136719 5.238281 34.136719 8.535157 0 7.40625-14.773438 25.597656-34.136719 25.597656zm0 86.1875c-32.511719 0-60.585938-12.707032-71.679688-30.40625 7.730469 2.523437 15.804688 3.839844 23.9375 3.902344 9.792969.058593 19.492188-1.957032 28.449219-5.914063 7.3125-3.113281 13.886719-7.730469 19.292969-13.550781 5.421875 5.824218 12.007812 10.4375 19.328125 13.542968 16.625 7.058594 35.261719 7.777344 52.378906 2.019532-11.117187 17.707031-39.203125 30.40625-71.707031 30.40625zm238.933594-102.398438c-.082032 8.722656-3.492188 17.085938-9.539063 23.378906-7.53125-4.148437-15.992187-6.320312-24.59375-6.3125-4.710937 0-8.53125 3.820313-8.53125 8.53125 0 4.714844 3.820313 8.535157 8.53125 8.535157 18.851563 0 34.132813 15.28125 34.132813 34.132812 0 18.851563-15.28125 34.132813-34.132813 34.132813-18.851562 0-34.132812-15.28125-34.132812-34.132813 0-4.714843-3.820313-8.535156-8.53125-8.535156h-65.640625c7.796875-5.109375 14.710937-11.449219 20.480468-18.773437 6.367188-8.253907 10.125-18.222657 10.792969-28.628907.359375-.628906.691407-1.3125 1.042969-1.945312 8.796875-1.414063 17.296875-4.273438 25.15625-8.464844.84375 3.839844 4.234375 6.585937 8.167969 6.613281 4.710937 0 8.53125-3.820312 8.53125-8.53125 0-18.851562 15.28125-34.136718 34.132812-34.136718 18.851563 0 34.132813 15.285156 34.132813 34.136718zm-92.652344-209.785156c-9.53125-30.292969-30.714844-55.558594-58.882812-70.230469 12.519531-42.546875 42.234374-50.832031 53.265624-52.410156 26.226563 36.964844 28.710938 85.765625 6.367188 125.199219-.257812-.867188-.496094-1.671875-.75-2.558594zm12.03125-165.503906c79.855469 96.527344 21.800781 185.351562 2.839844 209.554687-2.300782-5.539062-4.761719-12.023437-7.398438-19.867187 10.472656-15.429688 52.421875-86.246094-2.054687-160.769532-1.605469-2.195312-4.164063-3.496093-6.886719-3.496093-.554688 0-53.101562.851562-72.796875 61.960937-5.523437-2.5625-11-4.824218-16.34375-6.777344 14.835937-45.101562 55.304687-76.886718 102.640625-80.605468zm-316.585938 0c47.332032 3.71875 87.804688 35.503906 102.636719 80.605468-5.339843 1.953126-10.820312 4.265626-16.339843 6.777344-19.730469-61.109375-72.234376-61.960937-72.832032-61.960937-2.722656 0-5.28125 1.300781-6.886718 3.496093-54.476563 74.523438-12.527344 145.339844-2.054688 160.769532-2.640625 7.851562-5.121094 14.34375-7.410156 19.890625-19.003906-24.125-77.242188-112.785157 2.851562-209.578125zm12.03125 165.496094c-.230468.851562-.453124 1.5625-.691406 2.363281-21.988281-39.429688-19.542968-87.953125 6.296875-124.972657 10.972657 1.640626 40.78125 10.0625 53.265625 52.386719-28.175781 14.664063-49.367187 39.925781-58.90625 70.222657zm-29.816406 108.558593c2.890625-8.914062 7.1875-17.308593 12.730469-24.863281 8.382813-12.355469 18.773437-27.742188 33.460937-79.011719 16.75-58.726562 87.671876-78.171875 117.402344-83.8125 8.242188-1.59375 16.710938-1.59375 24.949219 0 29.714844 5.628907 100.636719 25.078125 117.386719 83.8125 14.660156 51.261719 25.078125 66.644531 33.457031 79.003907 5.539063 7.542968 9.832031 15.925781 12.714844 24.832031 5.800781 21.675781 3.308593 44.734375-6.988281 64.671875-3.9375 3.855468-7.230469 8.3125-9.753907 13.210937-5.652343 5.792969-12.507812 10.28125-20.078125 13.148438 1.554688-3.414063 3.15625-6.65625 4.625-10.144531l1.144532-2.707032c8.625-20.375 23.039062-54.476562 1.296874-75.042968-4.832031-4.289063-10.179687-7.957032-15.921874-10.921876-16.761719-8.011718-27.960938-24.378906-29.355469-42.90625-.414063-6-.144531-12.03125.808593-17.96875 1.839844-9.882812 1.550782-20.046874-.851562-29.808593-5.734375-17.394531-18.777344-31.421875-35.710938-38.398438-8.671874-4.148437-37.71875-16.144531-47.320312 3.027344-5.035156 10.078125-8.113281 34.347656-9.15625 72.140625-.207031 4.714844-4.085938 8.429688-8.804688 8.429688s-8.597656-3.714844-8.808593-8.429688c-1.039063-37.792969-4.121094-62.0625-9.15625-72.140625-9.597657-19.183594-38.644531-7.175781-47.316407-3.027344-16.933593 6.976563-29.976562 21.003907-35.710937 38.398438-2.402344 9.761719-2.695313 19.925781-.855469 29.808593.953125 5.9375 1.226563 11.96875.8125 17.96875-1.433594 12.40625-6.820312 24.023438-15.359375 33.136719-4.144531 3.929688-8.84375 7.222657-13.953125 9.769531-5.738281 2.964844-11.082031 6.636719-15.914062 10.921876-21.769532 20.574218-7.332032 54.675781 1.296875 75.09375l1.144531 2.714843c1.464844 3.480469 3.070312 6.765625 4.625 10.136719-7.570312-2.859375-14.421875-7.339844-20.078125-13.125-2.527344-4.894531-5.820313-9.355469-9.753906-13.207031-10.3125-19.945313-12.808594-43.019531-7.007813-64.710938zm-28.738281 67.097657c18.851563 0 34.132813 15.285156 34.132813 34.136718 0 4.710938 3.820312 8.53125 8.53125 8.53125 3.941406-.035156 7.332031-2.800781 8.160156-6.65625 7.859375 4.191406 16.359375 7.050782 25.15625 8.464844.347656.632812.679687 1.316406 1.039062 1.945312.683594 10.445313 4.46875 20.453126 10.871094 28.734376 5.75 7.296874 12.644531 13.617187 20.414062 18.710937h-65.640624c-4.710938 0-8.53125 3.820313-8.53125 8.535156.128906 15.402344-10.074219 28.984375-24.902344 33.148438-14.832032 4.164062-30.613282-2.117188-38.519532-15.335938-7.910156-13.21875-5.988281-30.097656 4.695313-41.195312 7.53125 4.152343 15.992187 6.324219 24.59375 6.316406 4.710937 0 8.53125-3.820313 8.53125-8.535156 0-4.710938-3.820313-8.53125-8.53125-8.53125-18.851563 0-34.136719-15.28125-34.136719-34.132813 0-18.851562 15.285156-34.136718 34.136719-34.136718zm0 0"/></svg>