<?xml version="1.0" encoding="iso-8859-1"?>
<!-- Generator: Adobe Illustrator 16.0.0, SVG Export Plug-In . SVG Version: 6.00 Build 0)  -->
<!DOCTYPE svg PUBLIC "-//W3C//DTD SVG 1.1//EN" "http://www.w3.org/Graphics/SVG/1.1/DTD/svg11.dtd">
<svg version="1.1" id="Capa_1" xmlns="http://www.w3.org/2000/svg" xmlns:xlink="http://www.w3.org/1999/xlink" x="0px" y="0px"
	 width="367.607px" height="367.607px" viewBox="0 0 367.607 367.607" style="enable-background:new 0 0 367.607 367.607;"
	 xml:space="preserve">
<g>
	<path d="M286.978,51.354c-10.844-22.027-29.616-38.518-52.861-46.428C224.516,1.66,214.549,0,204.492,0
		c-39.355,0-74.321,25.05-87.012,62.33c-15.117,44.43,5.878,92.526,47.153,112.377l-38.67,113.611L85.78,274.643
		c-5.805-1.957-12.082,1.131-14.053,6.916c-1.968,5.789,1.128,12.084,6.915,14.051l40.184,13.678l-14.863,43.674
		c-1.968,5.791,1.127,12.084,6.915,14.053c1.185,0.4,2.388,0.594,3.568,0.594c4.609,0,8.916-2.902,10.484-7.51l14.863-43.674
		l40.188,13.678c1.184,0.4,2.387,0.59,3.568,0.59c4.612,0,8.916-2.898,10.482-7.506c1.97-5.791-1.127-12.084-6.914-14.053
		l-40.188-13.676l38.668-113.619c6.224,1.316,12.541,2.057,18.905,2.057c0.003,0,0,0,0.003,0c39.354,0,74.327-25.049,87.017-62.329
		C299.435,98.323,297.82,73.387,286.978,51.354z M270.557,114.429c-9.632,28.305-36.177,47.32-66.052,47.32
		c-7.624,0-15.193-1.26-22.489-3.747c-36.42-12.392-55.966-52.11-43.568-88.536c9.633-28.304,36.174-47.32,66.043-47.32
		c7.624,0,15.19,1.26,22.487,3.747c17.647,6.001,31.897,18.518,40.129,35.242C275.339,77.858,276.563,96.787,270.557,114.429z"/>
</g>
<g>
</g>
<g>
</g>
<g>
</g>
<g>
</g>
<g>
</g>
<g>
</g>
<g>
</g>
<g>
</g>
<g>
</g>
<g>
</g>
<g>
</g>
<g>
</g>
<g>
</g>
<g>
</g>
<g>
</g>
</svg>
